<svg xmlns:xlink="http://www.w3.org/1999/xlink" xmlns="http://www.w3.org/2000/svg" viewBox="0 0 60 60.006600726079874" x="0" y="0" width="200" height="200.02200242026623" class="image-svg-svg bn" style="overflow: visible;" fill="#0F0F0F"><g hollow-target="iconBnFill" mask="url(#7ffcdce3-b50c-4a45-b911-58aa05aa6d01)" fill="#0F0F0F"><g fill="#0F0F0F"><svg xmlns="http://www.w3.org/2000/svg" viewBox="0 0 179.85999 179.88" style="overflow: visible;" width="60" height="60.006600726079874" x="0" y="0" filtersec="colorsf3073553975" fill="#0F0F0F"><g transform="scale(1, 1) skewX(0)" fill="#0F0F0F"><path d="M156.86 108.62L175.54 90l-18.68-18.73v-4.35l23 23-23 23zm-48.24 48.24L90 175.54l-18.73-18.68L23 108.62 4.36 90 23 71.27 71.27 23 90 4.36 108.62 23H113L90 0 67 23 28.5 61.5 0 90l23 23 43.89 43.88 23 23 23-23z" fill="#333333"></path><path d="M23 66.92V23h43.92zM71.27 23L23 71.27v37.35l48.24 48.24h85.59V23zM23 113v43.88h43.92z" fill="#A0BFEB" opacity=".8"></path></g></svg></g> <g filter="url(#colors6699862459)" fill="#0F0F0F"><svg xmlns:dc="http://purl.org/dc/elements/1.1/" xmlns:cc="http://creativecommons.org/ns#" xmlns:rdf="http://www.w3.org/1999/02/22-rdf-syntax-ns#" xmlns:svg="http://www.w3.org/2000/svg" xmlns="http://www.w3.org/2000/svg" xmlns:sodipodi="http://sodipodi.sourceforge.net/DTD/sodipodi-0.dtd" xmlns:inkscape="http://www.inkscape.org/namespaces/inkscape" viewBox="-2 -0.9416500000000001 20.93334 18.81665" version="1.1" x="9.8" y="9.801078363039938" width="40.4" height="40.404444" class="image-svg-icon" fill="#0F0F0F"><g transform="translate(0,-280.06665)" fill="#0F0F0F"><path d="m 3.3590846,281.12502 c -0.8716005,0 -1.8034983,0.34692 -2.47576537,0.8759 -0.33609384,0.26451 -0.60927096,0.57727 -0.76169453,0.93433 -0.15242357,0.35705 -0.17255798,0.76782 0.002646,1.15186 l 2.2406346,4.91546 c 0.2736268,0.60047 0.6784318,0.95805 1.1316809,1.07383 0.4533021,0.11581 0.9186953,-0.005 1.3244527,-0.23873 0.1007514,-0.058 0.1970049,-0.12552 0.2904276,-0.19743 0.041089,0.0327 0.083686,0.0627 0.1301989,0.0873 -0.2192031,0.72276 -0.7474601,1.10794 -1.4024502,1.4759 -0.2288603,0.12903 -0.1499102,0.47638 0.1121283,0.494 1.0699546,0.0714 2.0634199,-0.27892 2.877792,-1.12861 0.03249,0.1669 0.050138,0.36825 0.050138,0.61032 v 1.87325 c -0.3298762,0.0515 -0.59292,0.19764 -0.765822,0.40619 -0.21706,0.26172 -0.2924912,0.59073 -0.2924912,0.90122 v 0.25942 c 0,0.35264 0.1682188,0.67482 0.4082443,0.91467 0.2400255,0.23982 0.5619908,0.40775 0.9146472,0.40775 h 1.5874701 c 0.3526828,0 0.6746218,-0.16793 0.9146473,-0.40775 0.2400255,-0.23985 0.4082448,-0.56203 0.4082448,-0.91467 v -3.43648 c 0,-0.24305 0.01746,-0.44503 0.05014,-0.61236 0.814371,0.84974 1.807863,1.20055 2.877791,1.12914 0.262038,-0.0177 0.340963,-0.36552 0.112128,-0.49456 -0.654673,-0.36777 -1.182559,-0.75282 -1.401947,-1.47484 0.04583,-0.0243 0.0876,-0.0547 0.128161,-0.0868 0.09385,0.071 0.191396,0.13645 0.291963,0.19431 0.405757,0.23344 0.871177,0.35454 1.324453,0.23873 0.453275,-0.11578 0.85808,-0.47336 1.13168,-1.07383 l 2.240635,-4.91546 c 0.174992,-0.38404 0.154884,-0.79481 0.0026,-1.15186 -0.152425,-0.35706 -0.425574,-0.66982 -0.761695,-0.93433 -0.67224,-0.52898 -1.604165,-0.8759 -2.475765,-0.8759 -0.862341,0 -1.600964,0.31565 -2.117156,0.83405 -0.06665,0.0669 -0.129459,0.13753 -0.188617,0.21084 -0.406499,-0.32292 -0.919596,-0.51678 -1.4789409,-0.51678 h -2.64574 c -0.5591863,0 -1.0724948,0.19402 -1.47894,0.51678 -0.059028,-0.0733 -0.1214943,-0.14393 -0.1881151,-0.21084 -0.5162189,-0.5184 -1.255292,-0.83405 -2.1176585,-0.83405 z m 3.7847135,1.05728 h 2.6457833 c 1.0306646,0 1.8520486,0.82063 1.8520486,1.85054 v 0.81907 c -0.607657,0.12248 -1.058313,0.66141 -1.058313,1.29501 -0.005,0.35779 0.534209,0.35779 0.529156,0 0,-0.3478 0.220129,-0.63712 0.529157,-0.74517 v 3.40185 c 0,0.22024 -0.05101,0.33792 -0.120912,0.40775 -0.0699,0.0698 -0.187746,0.12091 -0.408245,0.12091 -0.573209,0 -1.011906,0.15891 -1.2696584,0.50229 -0.2569057,0.34224 -0.3174147,0.79475 -0.3178115,1.34308 a 0.26451495,0.26461077 0 0 0 -0.0037,0 H 8.7348135 a 0.26451495,0.26461077 0 1 0 0,0.52916 H 9.521299 a 0.26451495,0.26461077 0 0 0 0.0037,0 v 0.52917 a 0.26451495,0.26461077 0 0 0 -0.0037,0 H 8.7348135 a 0.26451495,0.26461077 0 1 0 0,0.52917 H 9.521299 a 0.26451495,0.26461077 0 0 0 0.0037,0 v 0.52916 a 0.26451495,0.26461077 0 0 0 -0.0037,0 H 8.7348135 a 0.26451495,0.26461077 0 1 0 0,0.52917 H 9.521299 a 0.26451495,0.26461077 0 0 0 0.0037,0 v 0.79581 c 0,0.17608 -0.096386,0.3833 -0.2532015,0.54002 -0.156842,0.15671 -0.3640598,0.25323 -0.5405336,0.25323 h -1.58747 c -0.1764738,0 -0.3836914,-0.0965 -0.5405335,-0.25323 -0.156842,-0.15672 -0.2532015,-0.36394 -0.2532015,-0.54002 v -0.25942 c 0,-0.22302 0.056858,-0.42619 0.1705208,-0.56327 0.0785,-0.0946 0.189147,-0.16875 0.3586359,-0.20722 v 0.49662 c -0.0045,0.35734 0.5337603,0.35734 0.5291567,0 v -2.90679 c 0,-0.55018 -0.05998,-1.00415 -0.3178115,-1.34721 -0.2577787,-0.34306 -0.696476,-0.50178 -1.2696585,-0.50178 -0.2205525,0 -0.3383692,-0.0512 -0.4082443,-0.12092 -0.069849,-0.0697 -0.1209123,-0.18682 -0.1209123,-0.40671 v -3.40082 c 0.3089745,0.10808 0.5291566,0.39743 0.5291566,0.74517 -0.00503,0.35779 0.5342101,0.35779 0.5291566,0 0,-0.6336 -0.4650493,-1.19089 -1.0541858,-1.29294 l -0.00423,-0.82114 c -0.00529,-1.02991 0.8213834,-1.85054 1.8520483,-1.85054 z m -1.3854115,7.67241 c 0.021167,0 0.041062,0.005 0.06252,0.005 0.3953859,0 0.612446,0.0729 0.7560061,0.19894 -0.5190233,0.59711 -1.1000902,0.9235 -1.6432695,1.03973 0.3820511,-0.32011 0.6641181,-0.69908 0.8247435,-1.24333 z m 5.4166064,0.003 c 0.160625,0.54372 0.442454,0.92234 0.824241,1.2423 -0.542994,-0.1162 -1.123426,-0.44246 -1.642264,-1.03923 0.143613,-0.12586 0.360858,-0.19894 0.755503,-0.19894 0.02143,0 0.04138,-0.003 0.06252,-0.004 z" style="color: rgb(0, 0, 0); font-style: normal; font-variant: normal; font-weight: normal; font-stretch: normal; font-size: medium; line-height: normal; font-family: sans-serif; font-feature-settings: normal; text-indent: 0px; text-align: start; text-decoration: none solid rgb(0, 0, 0); letter-spacing: normal; word-spacing: normal; text-transform: none; writing-mode: lr-tb; direction: ltr; text-orientation: mixed; dominant-baseline: auto; baseline-shift: baseline; text-anchor: start; white-space: normal; clip-rule: nonzero; display: inline; overflow: visible; visibility: visible; opacity: 1; isolation: auto; mix-blend-mode: normal; color-interpolation: srgb; color-interpolation-filters: linearrgb; vector-effect: none; fill: rgb(0, 0, 0); fill-opacity: 1; fill-rule: nonzero; stroke: none; stroke-linecap: round; stroke-linejoin: round; stroke-miterlimit: 4; stroke-dasharray: none; stroke-dashoffset: 0; stroke-opacity: 1; color-rendering: auto; image-rendering: auto; shape-rendering: auto; text-rendering: auto;" stroke-width="0.529167px"></path></g></svg></g></g><mask id="7ffcdce3-b50c-4a45-b911-58aa05aa6d01" fill="#0F0F0F"><g fill="#FFFFFF"><svg xmlns="http://www.w3.org/2000/svg" viewBox="0 0 179.85999 179.88" style="overflow: visible;" width="60" height="60.006600726079874" x="0" y="0" filtersec="colorsf3073553975" fill="#FFFFFF"><g transform="scale(1, 1) skewX(0)" fill="#FFFFFF"><path d="M156.86 108.62L175.54 90l-18.68-18.73v-4.35l23 23-23 23zm-48.24 48.24L90 175.54l-18.73-18.68L23 108.62 4.36 90 23 71.27 71.27 23 90 4.36 108.62 23H113L90 0 67 23 28.5 61.5 0 90l23 23 43.89 43.88 23 23 23-23z" fill="#FFFFFF"></path><path d="M23 66.92V23h43.92zM71.27 23L23 71.27v37.35l48.24 48.24h85.59V23zM23 113v43.88h43.92z" fill="#FFFFFF"></path></g></svg></g> <g fill="black"><svg xmlns:dc="http://purl.org/dc/elements/1.1/" xmlns:cc="http://creativecommons.org/ns#" xmlns:rdf="http://www.w3.org/1999/02/22-rdf-syntax-ns#" xmlns:svg="http://www.w3.org/2000/svg" xmlns="http://www.w3.org/2000/svg" xmlns:sodipodi="http://sodipodi.sourceforge.net/DTD/sodipodi-0.dtd" xmlns:inkscape="http://www.inkscape.org/namespaces/inkscape" viewBox="-2 -0.9416500000000001 20.93334 18.81665" version="1.1" x="9.8" y="9.801078363039938" width="40.4" height="40.404444" class="image-svg-icon"><g transform="translate(0,-280.06665)"><path d="m 3.3590846,281.12502 c -0.8716005,0 -1.8034983,0.34692 -2.47576537,0.8759 -0.33609384,0.26451 -0.60927096,0.57727 -0.76169453,0.93433 -0.15242357,0.35705 -0.17255798,0.76782 0.002646,1.15186 l 2.2406346,4.91546 c 0.2736268,0.60047 0.6784318,0.95805 1.1316809,1.07383 0.4533021,0.11581 0.9186953,-0.005 1.3244527,-0.23873 0.1007514,-0.058 0.1970049,-0.12552 0.2904276,-0.19743 0.041089,0.0327 0.083686,0.0627 0.1301989,0.0873 -0.2192031,0.72276 -0.7474601,1.10794 -1.4024502,1.4759 -0.2288603,0.12903 -0.1499102,0.47638 0.1121283,0.494 1.0699546,0.0714 2.0634199,-0.27892 2.877792,-1.12861 0.03249,0.1669 0.050138,0.36825 0.050138,0.61032 v 1.87325 c -0.3298762,0.0515 -0.59292,0.19764 -0.765822,0.40619 -0.21706,0.26172 -0.2924912,0.59073 -0.2924912,0.90122 v 0.25942 c 0,0.35264 0.1682188,0.67482 0.4082443,0.91467 0.2400255,0.23982 0.5619908,0.40775 0.9146472,0.40775 h 1.5874701 c 0.3526828,0 0.6746218,-0.16793 0.9146473,-0.40775 0.2400255,-0.23985 0.4082448,-0.56203 0.4082448,-0.91467 v -3.43648 c 0,-0.24305 0.01746,-0.44503 0.05014,-0.61236 0.814371,0.84974 1.807863,1.20055 2.877791,1.12914 0.262038,-0.0177 0.340963,-0.36552 0.112128,-0.49456 -0.654673,-0.36777 -1.182559,-0.75282 -1.401947,-1.47484 0.04583,-0.0243 0.0876,-0.0547 0.128161,-0.0868 0.09385,0.071 0.191396,0.13645 0.291963,0.19431 0.405757,0.23344 0.871177,0.35454 1.324453,0.23873 0.453275,-0.11578 0.85808,-0.47336 1.13168,-1.07383 l 2.240635,-4.91546 c 0.174992,-0.38404 0.154884,-0.79481 0.0026,-1.15186 -0.152425,-0.35706 -0.425574,-0.66982 -0.761695,-0.93433 -0.67224,-0.52898 -1.604165,-0.8759 -2.475765,-0.8759 -0.862341,0 -1.600964,0.31565 -2.117156,0.83405 -0.06665,0.0669 -0.129459,0.13753 -0.188617,0.21084 -0.406499,-0.32292 -0.919596,-0.51678 -1.4789409,-0.51678 h -2.64574 c -0.5591863,0 -1.0724948,0.19402 -1.47894,0.51678 -0.059028,-0.0733 -0.1214943,-0.14393 -0.1881151,-0.21084 -0.5162189,-0.5184 -1.255292,-0.83405 -2.1176585,-0.83405 z m 3.7847135,1.05728 h 2.6457833 c 1.0306646,0 1.8520486,0.82063 1.8520486,1.85054 v 0.81907 c -0.607657,0.12248 -1.058313,0.66141 -1.058313,1.29501 -0.005,0.35779 0.534209,0.35779 0.529156,0 0,-0.3478 0.220129,-0.63712 0.529157,-0.74517 v 3.40185 c 0,0.22024 -0.05101,0.33792 -0.120912,0.40775 -0.0699,0.0698 -0.187746,0.12091 -0.408245,0.12091 -0.573209,0 -1.011906,0.15891 -1.2696584,0.50229 -0.2569057,0.34224 -0.3174147,0.79475 -0.3178115,1.34308 a 0.26451495,0.26461077 0 0 0 -0.0037,0 H 8.7348135 a 0.26451495,0.26461077 0 1 0 0,0.52916 H 9.521299 a 0.26451495,0.26461077 0 0 0 0.0037,0 v 0.52917 a 0.26451495,0.26461077 0 0 0 -0.0037,0 H 8.7348135 a 0.26451495,0.26461077 0 1 0 0,0.52917 H 9.521299 a 0.26451495,0.26461077 0 0 0 0.0037,0 v 0.52916 a 0.26451495,0.26461077 0 0 0 -0.0037,0 H 8.7348135 a 0.26451495,0.26461077 0 1 0 0,0.52917 H 9.521299 a 0.26451495,0.26461077 0 0 0 0.0037,0 v 0.79581 c 0,0.17608 -0.096386,0.3833 -0.2532015,0.54002 -0.156842,0.15671 -0.3640598,0.25323 -0.5405336,0.25323 h -1.58747 c -0.1764738,0 -0.3836914,-0.0965 -0.5405335,-0.25323 -0.156842,-0.15672 -0.2532015,-0.36394 -0.2532015,-0.54002 v -0.25942 c 0,-0.22302 0.056858,-0.42619 0.1705208,-0.56327 0.0785,-0.0946 0.189147,-0.16875 0.3586359,-0.20722 v 0.49662 c -0.0045,0.35734 0.5337603,0.35734 0.5291567,0 v -2.90679 c 0,-0.55018 -0.05998,-1.00415 -0.3178115,-1.34721 -0.2577787,-0.34306 -0.696476,-0.50178 -1.2696585,-0.50178 -0.2205525,0 -0.3383692,-0.0512 -0.4082443,-0.12092 -0.069849,-0.0697 -0.1209123,-0.18682 -0.1209123,-0.40671 v -3.40082 c 0.3089745,0.10808 0.5291566,0.39743 0.5291566,0.74517 -0.00503,0.35779 0.5342101,0.35779 0.5291566,0 0,-0.6336 -0.4650493,-1.19089 -1.0541858,-1.29294 l -0.00423,-0.82114 c -0.00529,-1.02991 0.8213834,-1.85054 1.8520483,-1.85054 z m -1.3854115,7.67241 c 0.021167,0 0.041062,0.005 0.06252,0.005 0.3953859,0 0.612446,0.0729 0.7560061,0.19894 -0.5190233,0.59711 -1.1000902,0.9235 -1.6432695,1.03973 0.3820511,-0.32011 0.6641181,-0.69908 0.8247435,-1.24333 z m 5.4166064,0.003 c 0.160625,0.54372 0.442454,0.92234 0.824241,1.2423 -0.542994,-0.1162 -1.123426,-0.44246 -1.642264,-1.03923 0.143613,-0.12586 0.360858,-0.19894 0.755503,-0.19894 0.02143,0 0.04138,-0.003 0.06252,-0.004 z"></path></g></svg></g></mask></svg>